<svg width="1200" height="630" viewBox="0 0 1200 630" fill="none" xmlns="http://www.w3.org/2000/svg" role="img" aria-labelledby="title desc">
  <title id="title">ApiQuiz.com — Premium Domain</title>
  <desc id="desc">A gradient tech banner with the wordmark ApiQuiz.com</desc>
  <defs>
    <linearGradient id="bg" x1="0" y1="0" x2="1" y2="1">
      <stop offset="0%" stop-color="#0b1022"/>
      <stop offset="100%" stop-color="#070a18"/>
    </linearGradient>
    <radialGradient id="glow1" cx="0" cy="0" r="1" gradientUnits="userSpaceOnUse" gradientTransform="translate(150 80) rotate(45) scale(420 240)">
      <stop stop-color="#2ED0FF" stop-opacity="0.55"/>
      <stop offset="1" stop-color="#2ED0FF" stop-opacity="0"/>
    </radialGradient>
    <radialGradient id="glow2" cx="0" cy="0" r="1" gradientUnits="userSpaceOnUse" gradientTransform="translate(1050 120) rotate(45) scale(520 300)">
      <stop stop-color="#6F3CFF" stop-opacity="0.45"/>
      <stop offset="1" stop-color="#6F3CFF" stop-opacity="0"/>
    </radialGradient>
    <linearGradient id="wordGrad" x1="0" y1="0" x2="1" y2="0">
      <stop offset="0%" stop-color="#2ED0FF"/>
      <stop offset="100%" stop-color="#6F3CFF"/>
    </linearGradient>
  </defs>
  <rect width="1200" height="630" fill="url(#bg)"/>
  <ellipse cx="180" cy="120" rx="420" ry="240" fill="url(#glow1)"/>
  <ellipse cx="990" cy="140" rx="520" ry="300" fill="url(#glow2)"/>

  <!-- Subtle grid -->
  <g opacity="0.12" stroke="#FFFFFF">
    <g opacity="0.12">
      <path d="M0 70H1200"/>
      <path d="M0 140H1200"/>
      <path d="M0 210H1200"/>
      <path d="M0 280H1200"/>
      <path d="M0 350H1200"/>
      <path d="M0 420H1200"/>
      <path d="M0 490H1200"/>
      <path d="M0 560H1200"/>
    </g>
    <g opacity="0.12">
      <path d="M100 0V630"/>
      <path d="M220 0V630"/>
      <path d="M340 0V630"/>
      <path d="M460 0V630"/>
      <path d="M580 0V630"/>
      <path d="M700 0V630"/>
      <path d="M820 0V630"/>
      <path d="M940 0V630"/>
      <path d="M1060 0V630"/>
    </g>
  </g>

  <!-- Wordmark -->
  <g>
    <text x="80" y="340" font-family="'Segoe UI', Roboto, Helvetica, Arial, sans-serif" font-weight="800" font-size="92" fill="url(#wordGrad)">ApiQuiz.com</text>
    <text x="82" y="342" font-family="'Segoe UI', Roboto, Helvetica, Arial, sans-serif" font-weight="800" font-size="92" fill="rgba(46,208,255,0.18)">ApiQuiz.com</text>
    <text x="84" y="420" font-family="'Segoe UI', Roboto, Helvetica, Arial, sans-serif" font-weight="600" font-size="28" fill="#B9C3E6">Premium Tech & EdTech Domain</text>
  </g>

  <!-- Decorative code accents -->
  <g opacity="0.75" stroke="#8A6BFF" stroke-width="2">
    <path d="M1040 260 l30 -30 l30 30" fill="none"/>
    <path d="M1100 320 l-30 30 l-30 -30" fill="none"/>
  </g>
  <g opacity="0.75" stroke="#2ED0FF" stroke-width="2">
    <circle cx="1040" cy="360" r="10" fill="none"/>
    <rect x="1080" y="380" width="32" height="20" rx="4" fill="none"/>
  </g>
</svg>
